<svg width="1470" height="330" viewBox="0 0 1470 330" fill="none" xmlns="http://www.w3.org/2000/svg">
<g opacity="0.3" clip-path="url(#clip0_197_501)">
<path fill-rule="evenodd" clip-rule="evenodd" d="M1188.27 223.985C1185.24 227.478 1186.1 227.069 1179.05 224.514C1172.86 222.095 1175.79 221.293 1170.25 225.179C1165.26 228.808 1157.11 232.422 1153.32 235.235C1154.74 239.121 1166.89 251.868 1169.82 257.1C1168.73 257.765 1167.87 258.31 1166.68 258.975C1164.83 260.049 1165.27 260.049 1163.1 258.446C1158.32 255.089 1143.01 244.353 1139.98 242.75C1135.96 244.897 1125.32 251.611 1121.64 251.339C1119.9 251.203 1117.08 250.674 1117.63 247.982C1119.03 241.404 1128.59 237.79 1134.78 234.433C1137.27 233.088 1136.62 233.224 1137.16 229.867C1137.82 226.253 1141.95 199.957 1142.91 198.611C1143.34 198.203 1146.7 196.464 1147.36 196.056C1147.7 198.475 1147.9 201.152 1148.01 203.707L1149.1 218.602C1149.1 221.021 1149.43 223.833 1149.75 226.117C1152.58 224.378 1155.39 222.896 1158.32 221.157C1172.87 212.568 1170.26 218.345 1173.63 208.682C1175.58 203.314 1175.58 200.093 1179.82 200.895C1179.05 211.646 1181.43 218.344 1188.27 223.985ZM1064.76 120.012C1068.67 121.494 1067.79 121.63 1073.23 115.445C1078 110.077 1075.07 110.878 1081.47 111.559C1087.11 112.088 1095.79 111.151 1100.25 111.695C1100.36 115.853 1093.74 133.832 1092.87 140.138C1094.07 140.138 1095.04 140.138 1096.34 140.138C1098.41 140.138 1097.97 140.41 1099.49 137.855C1102.63 132.214 1112.63 114.371 1114.9 111.423C1119.35 111.287 1131.18 111.559 1134.44 109.548C1135.95 108.474 1138.34 106.327 1136.93 104.18C1133.35 99.084 1123.48 100.823 1116.75 101.095C1114.03 101.095 1114.69 100.959 1112.94 98.2826C1111.1 95.3339 1098.29 73.7258 1096.99 73.0605C1096.45 72.9244 1092.76 73.0605 1092.11 73.0605C1092.55 75.4799 1093.31 77.8841 1094.07 80.3035L1098.3 94.3813C1099.06 96.5285 1099.82 99.341 1100.37 101.488C1097.22 101.352 1094.07 101.488 1090.82 101.488C1074.75 101.488 1079.21 105.374 1072.69 98.4035C1069.12 94.5174 1068.03 91.6897 1064.44 94.6535C1068.78 103.923 1068.99 111.287 1064.76 120.012ZM1063.02 106.327C1064.65 106.055 1065.2 109.14 1063.34 109.548L1060.74 109.956C1059.11 110.364 1058.45 107.144 1060.3 106.735L1063.02 106.327ZM832.519 320.987C831.651 323.134 829.265 321.516 830.024 319.641L830.672 317.902C831.541 315.891 833.926 317.494 833.057 319.384L832.519 320.987ZM836.641 310.387C835.773 312.398 833.388 310.931 834.256 308.905L835.455 305.956C836.213 303.945 838.599 305.548 837.84 307.423L836.641 310.387ZM841.522 298.577C840.764 300.452 838.268 299.107 839.137 297.095L840.433 294.147C841.192 292.272 843.577 293.618 842.819 295.765L841.522 298.577ZM846.733 287.04C845.754 289.051 843.479 287.176 844.348 285.422L845.754 282.473C846.733 280.462 848.898 282.337 848.03 284.076L846.733 287.04ZM852.164 275.639C851.186 277.514 848.91 275.775 849.889 273.9L851.296 271.087C852.164 269.212 854.549 270.951 853.571 272.826L852.164 275.639ZM857.913 264.373C857.045 266.112 854.66 264.509 855.638 262.634L857.155 259.822C858.023 258.083 860.409 259.686 859.32 261.697L857.913 264.373ZM863.883 253.501C862.794 255.24 860.739 253.229 861.718 251.49L863.234 248.814C864.323 247.075 866.488 249.086 865.399 250.825L863.883 253.501ZM870.17 242.765C869.081 244.504 867.026 242.493 868.103 240.754L869.73 238.078C870.818 236.339 872.873 238.486 871.785 240.089L870.17 242.765ZM876.47 232.71C875.491 233.375 874.305 232.301 874.402 230.971C874.292 230.169 874.83 229.096 875.601 228.96L876.47 227.614C877.558 226.011 879.723 228.022 878.537 229.761L878.317 230.169L878.745 230.305C880.482 231.107 879.393 234.191 877.766 233.39L876.47 232.71ZM883.748 222.246C882.439 223.864 880.604 221.58 881.791 219.962L883.528 217.543C884.824 215.804 886.671 218.208 885.485 219.69L883.748 222.246ZM891.014 212.447C889.815 214.05 887.76 211.782 889.057 210.164L890.904 207.745C892.102 206.142 894.047 208.41 892.861 210.028L891.014 212.447ZM898.5 203.057C897.093 204.539 895.356 201.983 896.653 200.638L898.5 198.354C899.907 196.736 901.644 199.292 900.457 200.774L898.5 203.057ZM906.316 193.939C905.007 195.421 903.173 193.001 904.469 191.52L906.536 189.236C907.833 187.754 909.68 190.31 908.273 191.792L906.316 193.939ZM914.341 185.35C913.142 186.696 911.307 184.277 912.714 182.81L914.781 180.663C916.298 179.181 917.815 182.008 916.408 183.218L914.341 185.35ZM922.805 177.034C921.289 178.379 919.772 175.688 921.178 174.478L923.246 172.467C924.762 171.121 926.279 173.813 924.873 175.022L922.805 177.034ZM931.38 169.246C930.084 170.456 928.347 167.9 929.863 166.57C930.622 165.904 931.38 165.224 932.139 164.695C933.435 163.485 935.172 166.04 933.655 167.371C932.909 168.036 932.151 168.581 931.38 169.246ZM940.285 161.867C938.768 163.077 937.46 160.128 938.879 159.054L941.154 157.316C942.671 156.106 944.089 159.054 942.56 160.128L940.285 161.867ZM949.398 155.032C947.992 156.106 946.475 153.293 948.102 152.084L950.487 150.481C951.894 149.407 953.41 152.22 951.784 153.429L949.398 155.032ZM958.842 148.591C957.105 149.664 956.016 146.58 957.533 145.642L959.918 144.039C961.545 143.102 962.744 146.186 961.227 147.124L958.842 148.591ZM968.395 142.693C966.878 143.631 965.569 140.682 967.196 139.609C968.065 139.2 968.823 138.671 969.692 138.263C971.208 137.325 972.407 140.274 970.78 141.212C970.022 141.741 969.153 142.149 968.395 142.693ZM978.156 137.189C976.419 137.991 975.551 134.906 977.068 134.105L979.563 132.759C981.3 131.957 982.168 135.163 980.542 135.844L978.156 137.189ZM988.04 132.214C986.413 133.016 985.434 129.931 987.061 129.13L989.667 127.92C991.184 127.119 992.272 130.203 990.535 131.005L988.04 132.214ZM998.131 127.663C996.505 128.328 995.526 125.244 997.263 124.578C998.131 124.17 999 123.777 999.868 123.505C1001.39 122.703 1002.36 125.788 1000.63 126.589C999.758 126.983 999 127.255 998.131 127.663ZM1008.33 123.641C1006.49 124.17 1005.95 120.964 1007.57 120.42L1010.18 119.482C1011.92 118.953 1012.57 122.159 1010.83 122.703L1008.33 123.641ZM1018.64 120.012C1016.91 120.556 1016.26 117.335 1018 116.791L1020.6 115.989C1022.23 115.46 1022.99 118.666 1021.25 119.21L1018.64 120.012ZM1029.05 116.927C1027.43 117.456 1026.56 114.25 1028.41 113.57L1031.12 112.905C1032.97 112.496 1033.3 115.853 1031.66 116.126L1029.05 116.927ZM1039.48 114.114C1037.74 114.523 1037.31 111.302 1039.05 110.894L1041.65 110.364C1043.5 109.956 1043.93 113.177 1042.19 113.585L1039.48 114.114ZM1050.11 111.831C1048.37 112.239 1047.83 109.019 1049.68 108.61L1052.28 108.081C1054.02 107.673 1054.56 111.03 1052.71 111.438L1050.11 111.831ZM688.717 241.692C685.671 245.185 686.552 244.776 679.494 242.1C673.304 239.817 676.24 238.879 670.699 242.901C665.708 246.394 657.561 250.144 653.769 252.957C655.176 256.843 667.335 269.59 670.271 274.822C669.182 275.487 668.314 275.896 667.127 276.561C665.28 277.771 665.72 277.771 663.543 276.153C658.772 272.796 643.47 261.924 640.424 260.457C636.412 262.604 625.77 269.318 622.088 269.046C620.351 268.91 617.525 268.244 618.076 265.553C619.483 258.975 629.036 255.361 635.225 252.004C637.721 250.658 637.072 250.931 637.611 247.574C638.259 243.824 642.393 217.664 643.36 216.318C643.69 215.91 647.152 214.035 647.812 213.763C648.143 216.182 648.363 218.723 648.461 221.278L649.549 236.308C649.549 238.592 649.88 241.54 650.198 243.688C653.023 242.07 655.837 240.467 658.772 238.864C673.317 230.275 670.601 236.051 674.075 226.389C676.032 221.021 675.922 217.8 680.265 218.602C679.494 229.353 681.879 236.066 688.717 241.692ZM685.573 228.415C683.946 229.081 684.595 232.165 686.442 231.636L688.937 230.562C690.454 230.018 689.916 226.812 688.069 227.342L685.573 228.415ZM968.285 300.588C969.692 302.07 971.208 299.379 969.912 298.048L968.823 296.974C967.306 295.493 965.789 298.184 967.086 299.53L968.285 300.588ZM960.799 293.209C962.205 294.555 963.832 292 962.536 290.654L960.371 288.507C958.964 287.161 957.337 289.852 958.744 291.183L960.799 293.209ZM952.334 285.165C953.631 286.511 955.368 283.955 953.961 282.488L951.796 280.477C950.389 279.268 948.652 281.823 950.169 283.169L952.334 285.165ZM943.649 277.377C945.166 278.723 946.585 275.775 945.166 274.701L942.891 272.826C941.374 271.48 939.955 274.444 941.374 275.502L943.649 277.377ZM934.744 269.998C936.261 271.208 937.68 268.396 936.261 267.186L933.986 265.447C932.469 264.237 930.952 266.929 932.469 268.138L934.744 269.998ZM925.741 262.891C927.148 263.965 928.665 261.289 927.038 260.079L924.762 258.34C923.356 257.266 921.839 259.943 923.356 261.152L925.741 262.891ZM916.408 256.178C918.145 257.251 919.234 254.303 917.815 253.229L915.429 251.626C913.802 250.553 912.604 253.501 914.133 254.575L916.408 256.178ZM907.075 249.872C908.702 250.81 909.79 247.861 908.273 246.923L905.888 245.306C904.261 244.368 903.062 247.317 904.689 248.254L907.075 249.872ZM897.411 243.975C899.038 244.912 900.237 241.964 898.598 240.89L896.212 239.544C894.696 238.607 893.387 241.419 895.014 242.493L897.411 243.975ZM887.76 238.471C889.497 239.272 890.365 236.187 888.739 235.386L886.243 234.04C884.616 233.239 883.638 236.324 885.265 237.125L887.76 238.471ZM867.785 228.808C869.632 229.474 870.17 226.253 868.653 225.724L866.048 224.65C864.201 223.985 863.662 227.206 865.179 227.735L867.785 228.808ZM857.583 224.786C859.21 225.451 859.968 222.231 858.341 221.565L855.736 220.628C853.999 220.083 853.241 223.304 854.978 223.849L857.583 224.786ZM847.271 221.308C848.788 221.837 849.767 218.768 847.92 218.087L845.314 217.286C843.357 216.757 843.039 220.099 844.666 220.507L847.271 221.308ZM836.862 218.224C838.599 218.632 839.027 215.411 837.4 215.003L834.684 214.337C832.947 213.929 832.409 217.15 834.134 217.558L836.862 218.224ZM826.33 215.804C827.957 216.212 828.605 212.992 826.758 212.447C825.889 212.311 824.911 212.039 824.042 211.918C822.415 211.51 821.767 214.731 823.614 215.275C824.483 215.396 825.461 215.532 826.33 215.804ZM815.7 213.793C817.547 214.065 817.767 210.708 816.03 210.572L813.425 210.164C811.578 209.892 811.357 213.249 813.094 213.385L815.7 213.793ZM805.058 212.447C806.795 212.583 807.125 209.363 805.278 209.09L802.562 208.818C800.936 208.546 800.507 211.903 802.452 212.175L805.058 212.447ZM794.428 211.51C796.275 211.646 796.165 208.289 794.538 208.289L791.823 208.153C789.975 208.017 789.975 211.374 791.712 211.374L794.428 211.51ZM783.676 211.238C785.413 211.238 785.523 207.881 783.676 207.881C782.807 207.881 781.829 207.881 780.96 207.881C779.333 207.881 779.113 211.238 780.96 211.238C781.951 211.238 782.807 211.238 783.676 211.238ZM772.936 211.51C774.893 211.238 774.563 208.017 772.826 208.153L770.22 208.289C768.373 208.425 768.594 211.782 770.33 211.646L772.936 211.51ZM762.306 212.175C764.043 212.039 763.823 208.682 762.086 208.818L759.37 209.09C757.633 209.226 757.854 212.583 759.591 212.447L762.306 212.175ZM751.664 213.385C753.291 213.249 753.181 209.892 751.334 210.164C750.465 210.3 749.487 210.436 748.618 210.572C746.991 210.708 747.101 214.065 748.949 213.793C749.817 213.657 750.686 213.521 751.664 213.385ZM741.034 215.124C742.881 214.715 742.233 211.51 740.606 211.903L737.878 212.311C736.141 212.856 736.68 216.076 738.306 215.668L741.034 215.124ZM730.392 217.407C732.129 216.999 731.701 213.657 729.964 214.05L727.249 214.715C725.622 215.124 726.05 218.345 727.787 217.936L730.392 217.407ZM719.97 219.962C721.597 219.69 721.169 216.349 719.322 216.742L716.717 217.543C714.87 218.087 715.738 221.293 717.365 220.764L719.97 219.962ZM709.561 223.183C711.298 222.518 710.539 219.297 708.802 219.962L706.197 220.764C704.46 221.293 705.218 224.514 706.955 223.985L709.561 223.183ZM699.139 226.676C700.876 226.147 700.228 222.79 698.38 223.455L695.885 224.393C694.258 224.922 694.796 228.143 696.643 227.614L699.139 226.676ZM1185.11 210.708C1183.49 211.374 1184.13 214.458 1185.98 213.929L1188.48 212.856C1189.99 212.311 1189.57 209.105 1187.61 209.771L1185.11 210.708ZM1467.83 283.018C1469.23 284.363 1470.86 281.672 1469.45 280.462L1468.36 279.253C1466.85 277.771 1465.33 280.598 1466.63 281.808L1467.83 283.018ZM1460.34 275.639C1461.76 276.984 1463.37 274.293 1462.08 272.962L1459.9 270.951C1458.49 269.605 1456.85 272.161 1458.27 273.506L1460.34 275.639ZM1451.87 267.458C1453.17 268.804 1454.91 266.248 1453.5 264.903L1451.34 262.891C1449.93 261.546 1448.19 264.101 1449.71 265.568L1451.87 267.458ZM1443.19 259.807C1444.71 261.016 1446.13 258.204 1444.71 256.994L1442.54 255.119C1440.91 253.909 1439.5 256.737 1441.02 257.932L1443.19 259.807ZM1434.3 252.291C1435.81 253.501 1437.22 250.689 1435.81 249.479L1433.54 247.74C1432.02 246.53 1430.6 249.358 1432.02 250.553L1434.3 252.291ZM1425.28 245.185C1426.7 246.394 1428.22 243.703 1426.7 242.372L1424.31 240.633C1423.02 239.559 1421.39 242.236 1423.02 243.582L1425.28 245.185ZM1416.06 238.471C1417.68 239.544 1418.77 236.596 1417.37 235.658L1414.98 233.919C1413.35 232.982 1412.16 235.93 1413.69 236.868L1416.06 238.471ZM1406.63 232.165C1408.25 233.103 1409.45 230.29 1407.81 229.217L1405.43 227.735C1403.8 226.661 1402.71 229.746 1404.23 230.683L1406.63 232.165ZM1396.96 226.268C1398.59 227.205 1399.79 224.257 1398.16 223.319L1395.78 221.837C1394.26 220.9 1392.96 223.849 1394.58 224.786L1396.96 226.268ZM1387.3 220.764C1389.04 221.565 1389.91 218.481 1388.28 217.679L1385.89 216.333C1384.16 215.532 1383.18 218.753 1384.8 219.418L1387.3 220.764ZM1377.32 215.804C1378.95 216.606 1380.02 213.521 1378.3 212.583L1375.8 211.51C1374.17 210.708 1373.2 213.793 1374.82 214.594L1377.32 215.804ZM1367.34 211.238C1369.18 211.903 1369.72 208.561 1368.21 208.017L1365.6 206.943C1363.75 206.278 1363.21 209.499 1364.73 210.164L1367.34 211.238ZM1357.14 207.079C1358.87 207.745 1359.52 204.539 1357.89 203.995L1355.29 203.057C1353.55 202.392 1352.79 205.613 1354.53 206.142L1357.14 207.079ZM1346.82 203.601C1348.34 204.131 1349.32 201.046 1347.47 200.381L1344.87 199.579C1342.91 199.05 1342.58 202.392 1344.22 202.8L1346.82 203.601ZM1336.4 200.638C1338.14 201.046 1338.57 197.689 1336.94 197.281L1334.22 196.615C1332.49 196.207 1332.05 199.428 1333.8 199.836L1336.4 200.638ZM1325.88 198.097C1327.51 198.506 1328.17 195.285 1326.31 194.876C1325.44 194.604 1324.57 194.468 1323.59 194.211C1322.08 193.939 1321.32 197.16 1323.17 197.568C1324.15 197.689 1325.01 197.961 1325.88 198.097ZM1315.24 196.086C1317.09 196.358 1317.31 193.138 1315.57 192.865L1312.96 192.457C1311.12 192.185 1310.9 195.542 1312.63 195.678L1315.24 196.086ZM1304.61 194.74C1306.35 195.013 1306.67 191.656 1304.83 191.383L1302.11 191.111C1300.49 190.975 1300.05 194.196 1302 194.468L1304.61 194.74ZM1293.97 193.939C1295.82 193.939 1295.71 190.582 1294.08 190.582L1291.36 190.446C1289.52 190.446 1289.52 193.667 1291.25 193.803L1293.97 193.939ZM1283.23 193.531C1284.97 193.531 1285.08 190.31 1283.23 190.174C1282.36 190.174 1281.38 190.174 1280.51 190.174C1278.89 190.174 1278.67 193.531 1280.51 193.531C1281.49 193.531 1282.36 193.531 1283.23 193.531ZM1272.49 193.803C1274.45 193.667 1274.12 190.31 1272.38 190.446L1269.77 190.582C1267.93 190.718 1268.15 194.075 1269.88 193.939L1272.49 193.803ZM1261.85 194.468C1263.58 194.332 1263.47 190.975 1261.63 191.247L1258.91 191.52C1257.17 191.656 1257.39 194.876 1259.13 194.74L1261.85 194.468ZM1251.22 195.814C1252.84 195.542 1252.73 192.185 1250.89 192.457C1250.02 192.593 1249.04 192.729 1248.17 192.865C1246.54 193.001 1246.65 196.358 1248.5 196.086C1249.37 195.95 1250.24 195.814 1251.22 195.814ZM1240.57 197.417C1242.42 197.009 1241.76 193.803 1240.15 194.196L1237.43 194.725C1235.69 195.134 1236.23 198.354 1237.86 197.946L1240.57 197.417ZM1229.93 199.7C1231.67 199.292 1231.24 196.086 1229.5 196.479L1226.8 197.009C1225.17 197.417 1225.6 200.759 1227.34 200.365L1229.93 199.7ZM1219.52 202.392C1221.15 201.983 1220.72 198.642 1218.87 199.171L1216.27 199.836C1214.42 200.502 1215.29 203.601 1216.92 203.057L1219.52 202.392ZM1209.1 205.476C1210.84 204.811 1210.08 201.726 1208.45 202.256L1205.74 203.057C1204 203.722 1204.76 206.807 1206.5 206.278L1209.1 205.476ZM1198.79 208.954C1200.42 208.425 1199.77 205.204 1198.03 205.733L1195.43 206.671C1193.8 207.2 1194.34 210.557 1196.18 209.892L1198.79 208.954Z" fill="#CCCCCC"/>
</g>
<g opacity="0.3" clip-path="url(#clip1_197_501)">
<path fill-rule="evenodd" clip-rule="evenodd" d="M301.938 118.448C303.297 114.097 302.662 114.895 310.268 112.861C317.012 111.212 314.624 113.47 318.144 107.411C321.26 101.857 327.308 94.5388 329.653 90.2767C326.72 88.1319 310.157 85.3097 305.259 82.9988C305.991 81.8828 306.57 80.9822 307.393 79.8112C308.658 77.9596 308.25 78.2072 310.935 78.1965C316.754 78.0558 335.418 77.5735 338.897 77.0814C341.722 73.1992 348.794 62.131 352.32 60.2666C353.987 59.3929 356.826 58.2047 357.436 60.5524C358.869 66.3243 351.517 74.4331 347.176 80.4556C345.423 82.8779 345.967 82.4103 346.865 85.255C347.756 88.363 354.876 110.593 354.541 112.156C354.314 112.706 351.919 115.914 351.477 116.595C350.164 114.948 348.857 113.038 347.692 111.165L340.486 100.499C339.479 98.6668 338.002 96.7228 336.758 95.1727C334.862 98.0784 332.87 100.783 330.873 103.75C320.964 118.433 320.976 112.594 321.878 121.802C322.298 126.967 323.638 129.406 319.381 131.179C315.622 122.605 310.624 118.874 301.938 118.448ZM459.689 127.727C455.444 128.806 456.204 128.208 453.743 135.945C451.554 142.692 453.931 140.441 447.717 143.524C442.27 146.294 434.609 151.888 430.255 153.979C428.423 150.892 427.077 133.557 425.258 128.294C424.147 128.968 423.251 129.511 422.038 130.247C420.122 131.41 420.417 130.956 420.074 133.744C419.506 139.783 417.667 158.914 416.785 162.426C412.714 165.033 401.636 171.478 399.457 174.831C398.497 176.497 397.18 179.464 399.377 180.299C404.82 182.142 413.246 175.275 419.37 171.285C421.887 169.758 421.331 170.233 424.066 171.276C427.005 172.47 447.868 181.63 449.347 181.405C449.902 181.205 453.27 179.025 453.871 178.661C452.456 177.076 450.753 175.682 449.043 174.276L439.262 165.996C437.666 164.797 435.793 163.093 434.389 161.777C437.36 160.112 440.228 158.235 443.245 156.405C458.133 147.373 452.388 146.934 461.332 148.547C466.26 149.481 468.446 151.01 470.535 146.75C462.653 142.173 459.396 136.714 459.689 127.727ZM466.993 137.113C465.598 138.234 463.805 136.207 465.358 134.853L467.604 133.078C468.942 131.854 470.894 133.922 469.352 135.269L466.993 137.113ZM591.347 -155.056C591.259 -157.17 594.143 -157.286 594.22 -155.44L594.343 -153.759C594.375 -151.748 591.497 -151.62 591.515 -153.54L591.347 -155.056ZM591.937 -144.711C591.905 -146.723 594.726 -146.953 594.764 -144.93L594.88 -142.024C595.014 -140.074 592.136 -139.947 592.059 -141.793L591.937 -144.711ZM592.326 -133.024C592.249 -134.87 595.122 -135.255 595.154 -133.243L595.179 -130.281C595.256 -128.435 592.485 -128.113 592.294 -130.165L592.326 -133.024ZM592.296 -121.357C592.367 -123.43 595.256 -123.29 595.181 -121.473L595.103 -118.45C595.033 -116.376 592.246 -116.579 592.328 -118.384L592.296 -121.357ZM592.006 -109.67C592.133 -111.64 594.965 -111.602 594.838 -109.632L594.705 -106.711C594.68 -104.803 591.745 -104.779 591.872 -106.749L592.006 -109.67ZM591.364 -97.9062C591.445 -99.7113 594.323 -99.8389 594.196 -97.8688L593.961 -94.8861C593.879 -93.081 591.001 -92.9534 591.173 -95.0884L591.364 -97.9062ZM590.354 -86.3167C590.64 -88.2457 593.381 -87.8784 593.198 -86.0113L592.905 -83.1317C592.62 -81.2027 589.776 -81.508 590.062 -83.437L590.354 -86.3167ZM588.993 -74.6514C589.279 -76.5804 592.02 -76.2131 591.746 -74.291L591.352 -71.3494C591.066 -69.4204 588.268 -69.8908 588.61 -71.7167L588.993 -74.6514ZM587.337 -63.4945C587.968 -64.5486 589.514 -64.4028 589.977 -63.3402C590.413 -62.7952 590.361 -61.6796 589.703 -61.1432L589.458 -59.6357C589.115 -57.8098 586.272 -58.1151 586.648 -60.0992L586.682 -60.5321L586.229 -60.3944C584.285 -60.0245 584.011 -62.9726 585.852 -63.2806L587.337 -63.4945ZM584.945 -51.4781C585.485 -53.4393 588.136 -52.7421 587.709 -50.8497L587.105 -48.0409C586.627 -45.9949 583.914 -46.7769 584.398 -48.5662L584.945 -51.4781ZM582.286 -39.9724C582.731 -41.8603 585.579 -41.2983 585.051 -39.344L584.345 -36.4733C583.901 -34.5854 581.154 -35.2093 581.581 -37.1017L582.286 -39.9724ZM579.254 -28.6521C579.941 -30.5653 582.615 -29.6069 581.973 -27.8587L581.211 -25.0911C580.58 -23.0748 577.906 -24.0332 578.39 -25.8225L579.254 -28.6521ZM575.802 -17.3521C576.399 -19.2103 579.106 -18.41 578.521 -16.5588L577.555 -13.6673C576.97 -11.816 574.194 -12.7125 574.881 -14.6256L575.802 -17.3521ZM571.938 -6.33601C572.489 -8.0292 575.196 -7.22895 574.503 -5.32722L573.48 -2.53879C572.69 -0.563707 570.108 -1.85199 570.908 -3.55905L571.938 -6.33601ZM567.552 4.72163C568.398 2.84959 570.923 4.03483 570.123 5.74188L569.043 8.42725C568.197 10.2993 565.671 9.11406 566.472 7.40701L567.552 4.72163ZM562.843 15.4404C563.542 13.7953 566.215 14.7536 565.363 16.6142C564.937 17.5445 564.517 18.4862 564.034 19.3134C563.335 20.9586 560.662 20.0003 561.514 18.1397C561.929 17.2163 562.406 16.3776 562.843 15.4404ZM557.659 26.0358C558.561 24.2668 561.002 25.7636 560.133 27.3745L558.747 29.9707C557.845 31.7397 555.303 30.3048 556.273 28.632L557.659 26.0358ZM552.055 36.3359C552.912 34.7319 555.489 36.0087 554.484 37.8395L552.94 40.3946C552.082 41.9986 549.506 40.7218 550.511 38.8909L552.055 36.3359ZM545.982 46.524C547.145 44.7343 549.438 46.4579 548.422 48.0208L546.878 50.5758C545.76 52.2006 543.365 50.5389 544.381 48.976L545.982 46.524ZM539.58 56.3618C540.596 54.7989 543.036 56.2957 541.974 58.0235C541.339 58.8211 540.856 59.6483 540.221 60.4459C539.205 62.0087 536.867 60.45 537.985 58.8252C538.468 57.998 539.103 57.2005 539.58 56.3618ZM532.821 66.0188C534.098 64.4352 536.187 66.2827 535.114 67.7425L533.361 70.1648C532.084 71.7484 529.945 69.8093 531.17 68.3792L532.821 66.0188ZM525.73 75.3439C526.904 73.8221 529.095 75.6077 527.92 77.1294L526.008 79.5106C524.936 80.9704 522.643 79.2467 523.92 77.6631L525.73 75.3439ZM518.269 84.4652C519.5 83.0466 521.691 84.8321 520.357 86.3127C519.722 87.1102 519.081 87.8963 518.389 88.5908C517.316 90.0506 515.126 88.2651 516.402 86.6814C517.044 85.8954 517.634 85.2628 518.269 84.4652ZM510.486 93.2478C511.978 91.8083 513.81 93.9332 512.529 95.2602L510.504 97.4353C509.114 98.8128 507.179 96.7499 508.563 95.3609L510.486 93.2478ZM502.437 101.794C503.821 100.406 505.762 102.48 504.378 103.869L502.296 105.941C501.008 107.256 498.972 105.255 500.355 103.867L502.437 101.794ZM494.071 109.984C495.359 108.668 497.498 110.608 496.069 112.161L493.828 114.192C492.286 115.54 490.583 113.184 491.989 112.056L494.071 109.984ZM485.581 117.974C487.021 116.688 488.758 118.887 487.318 120.173L485.123 122.038C483.58 123.386 481.843 121.188 483.283 119.902L485.581 117.974ZM476.677 125.681C478.117 124.395 479.956 126.531 478.414 127.879L476.219 129.745C474.779 131.031 472.883 128.792 474.425 127.444L476.677 125.681ZM757.641 -175.876C759.011 -180.233 758.365 -179.429 766.021 -181.371C772.708 -183.123 770.377 -180.762 773.84 -186.924C777.013 -192.375 783.004 -199.796 785.349 -204.058C782.428 -206.21 765.854 -209.025 760.955 -211.336C761.688 -212.452 762.323 -213.25 763.146 -214.421C764.355 -216.375 763.946 -216.128 766.638 -216.127C772.457 -216.268 791.166 -216.64 794.599 -217.242C797.425 -221.124 804.496 -232.192 808.023 -234.057C809.689 -234.931 812.586 -236.016 813.195 -233.668C814.628 -227.896 807.276 -219.787 802.935 -213.765C801.182 -211.342 801.67 -211.913 802.568 -209.069C803.527 -205.864 810.579 -183.73 810.243 -182.168C810.107 -181.673 807.678 -178.306 807.179 -177.729C805.867 -179.375 804.605 -181.175 803.451 -183.055L796.188 -193.825C795.238 -195.554 793.705 -197.601 792.517 -199.048C790.571 -196.234 788.63 -193.438 786.575 -190.573C776.667 -175.891 776.781 -181.792 777.581 -172.522C778 -167.356 779.443 -164.979 775.084 -163.144C771.325 -171.719 766.32 -175.461 757.641 -175.876ZM766.079 -167.59C767.311 -169.009 765.426 -170.98 763.934 -169.541L762.068 -167.324C760.888 -166.059 762.721 -163.934 764.213 -165.374L766.079 -167.59ZM473.984 -63.264C472.063 -63.5951 471.777 -60.704 473.533 -60.4255L474.989 -60.2247C477.011 -59.9556 477.298 -62.8466 475.536 -63.1366L473.984 -63.264ZM483.994 -61.886C482.13 -62.114 481.685 -59.2641 483.447 -58.9741L486.347 -58.5657C488.211 -58.3376 488.599 -61.2906 486.742 -61.5072L483.994 -61.886ZM495.187 -60.5544C493.426 -60.8443 492.879 -57.9325 494.793 -57.6129L497.637 -57.3075C499.444 -57.1825 499.991 -60.0944 498.025 -60.2605L495.187 -60.5544ZM506.478 -59.5413C504.512 -59.7074 504.424 -56.6767 506.186 -56.6617L509.075 -56.5212C511.041 -56.3551 511.123 -59.3973 509.368 -59.4009L506.478 -59.5413ZM517.803 -58.9612C515.894 -59.0243 515.749 -56.0966 517.568 -55.9785L520.4 -55.9411C522.31 -55.8781 522.596 -58.7692 520.686 -58.8322L517.803 -58.9612ZM529.106 -58.6422C527.355 -58.6642 527.063 -55.7845 529.074 -55.7833L531.907 -55.746C533.658 -55.724 533.95 -58.6037 532.041 -58.6668L529.106 -58.6422ZM540.551 -58.8067C538.494 -58.6429 538.712 -55.7979 540.474 -55.7828L543.352 -55.9104C545.307 -56.0123 545.191 -58.9192 543.327 -58.8724L540.551 -58.8067ZM551.826 -59.2803C549.928 -59.0754 550.146 -56.2303 551.942 -56.3734L554.826 -56.4895C556.724 -56.6944 556.609 -59.6014 554.711 -59.3964L551.826 -59.2803ZM563.238 -60.2487C561.34 -60.0438 561.455 -57.1369 563.421 -57.2457L566.192 -57.5679C567.989 -57.7109 568.032 -60.5767 566.077 -60.4748L563.238 -60.2487ZM574.474 -61.5081C572.531 -61.1382 573.009 -58.3139 574.851 -58.6219L577.724 -59.0061C579.565 -59.3141 579.189 -62.2002 577.348 -61.8922L574.474 -61.5081ZM597.011 -65.4241C595.022 -64.8892 595.863 -62.1477 597.49 -62.5999L600.352 -63.252C602.341 -63.7869 601.499 -66.5284 599.873 -66.0763L597.011 -65.4241ZM608.142 -68.1151C606.357 -67.704 606.994 -64.8386 608.779 -65.2497L611.584 -66.0049C613.421 -66.5695 612.783 -69.4348 610.947 -68.8703L608.142 -68.1151ZM619.147 -71.2802C617.521 -70.828 617.891 -67.9533 619.886 -68.4767L622.635 -69.335C624.67 -70.0348 623.574 -72.7441 621.896 -72.1384L619.147 -71.2802ZM630.08 -74.798C628.3 -74.1304 629.244 -71.4507 630.921 -72.0564L633.716 -73.0796C635.496 -73.7473 634.654 -76.4888 632.886 -75.8281L630.08 -74.798ZM640.85 -78.8884C639.172 -78.2827 639.911 -75.4792 641.85 -76.1057C642.711 -76.491 643.732 -76.8352 644.587 -77.232C646.265 -77.8377 645.526 -80.6412 643.587 -80.0147C642.732 -79.6179 641.768 -79.1707 640.85 -78.8884ZM651.54 -83.343C649.715 -82.5105 650.907 -79.8447 652.574 -80.7184L655.159 -81.8744C656.985 -82.7069 655.792 -85.3727 654.125 -84.499L651.54 -83.343ZM661.965 -88.3083C660.298 -87.4346 661.332 -84.81 663.158 -85.6426L665.788 -86.9635C667.409 -87.6722 666.409 -90.455 664.493 -89.5674L661.965 -88.3083ZM672.209 -93.5759C670.44 -92.6403 671.938 -90.1602 673.447 -91.0751L676.02 -92.4991C677.789 -93.4347 676.392 -95.9767 674.782 -94.9999L672.209 -93.5759ZM682.289 -99.4161C680.679 -98.4393 681.973 -95.8355 683.685 -96.8741C684.49 -97.3625 685.398 -97.9128 686.203 -98.4012C687.711 -99.316 686.518 -101.982 684.806 -100.943C683.887 -100.386 683.094 -99.9045 682.289 -99.4161ZM692.131 -105.662C690.43 -104.355 692.076 -102.102 693.63 -103.182L695.988 -104.75C697.644 -105.891 696.043 -108.31 694.49 -107.23L692.131 -105.662ZM701.708 -112.143C700.154 -111.063 701.755 -108.645 703.309 -109.725L705.713 -111.458C707.266 -112.538 705.665 -114.956 704.112 -113.876L701.708 -112.143ZM711.069 -119.043C709.618 -118.025 711.117 -115.545 712.715 -116.79C713.464 -117.382 714.314 -118.035 715.063 -118.626C716.514 -119.644 715.015 -122.124 713.417 -120.88C712.668 -120.288 711.92 -119.697 711.069 -119.043ZM720.199 -126.338C718.657 -124.99 720.592 -122.927 721.936 -124.139L724.295 -125.983C725.678 -127.372 723.839 -129.508 722.501 -128.284L720.199 -126.338ZM729.114 -134.051C727.674 -132.765 729.461 -130.475 730.908 -131.75L733.148 -133.781C734.486 -135.005 732.749 -137.203 731.309 -135.917L729.114 -134.051ZM737.711 -141.847C736.317 -140.726 738.104 -138.436 739.653 -139.772L741.734 -141.844C743.22 -143.295 741.081 -145.234 739.793 -143.919L737.711 -141.847ZM746.021 -150.139C744.687 -148.659 746.731 -146.646 748.064 -148.127L750.146 -150.199C751.536 -151.576 749.492 -153.589 748.102 -152.211L746.021 -150.139ZM754.228 -158.645C752.838 -157.267 754.836 -155.09 756.271 -156.632L758.194 -158.746C759.482 -160.061 757.643 -162.197 756.151 -160.758L754.228 -158.645ZM310.388 126.727C311.619 125.308 309.735 123.337 308.243 124.776L306.376 126.992C305.197 128.257 306.928 130.444 308.465 128.84L310.388 126.727ZM18.236 230.949C16.372 230.721 15.9838 233.674 17.7911 233.799L19.3036 234.103C21.3262 234.372 21.5558 231.378 19.8505 231.191L18.236 230.949ZM28.2458 232.328C26.3704 232.106 25.9936 235.052 27.7492 235.331L30.6043 235.629C32.4683 235.858 32.9244 233.001 31.0491 232.78L28.2458 232.328ZM39.496 233.762C37.7342 233.472 37.1873 236.384 39.0512 236.612L41.895 236.917C43.759 237.146 44.3058 234.234 42.2895 233.976L39.496 233.762ZM50.7303 234.672C48.8209 234.609 48.6758 237.537 50.4944 237.655L53.2816 237.857C55.293 237.858 55.4318 234.919 53.5174 234.874L50.7303 234.672ZM62.1006 235.362C60.1912 235.299 60.0575 238.22 61.8648 238.345L64.6974 238.382C66.6067 238.445 66.7456 235.506 64.9332 235.4L62.1006 235.362ZM73.4145 235.674C71.5958 235.556 71.3098 238.447 73.2695 238.602L76.2041 238.577C77.8527 238.661 78.2472 235.72 76.1792 235.615L73.4145 235.674ZM84.7576 235.572C82.8028 235.674 83.0205 238.519 84.7145 238.438L87.6492 238.413C89.5474 238.208 89.4317 235.301 87.6243 235.451L84.7576 235.572ZM96.1235 235.043C94.2253 235.248 94.2844 238.052 96.2505 237.943L99.0782 237.724C101.033 237.622 100.759 234.674 98.9625 234.817L96.1235 235.043ZM107.535 234.075C105.637 234.28 105.753 237.186 107.651 236.982L110.478 236.762C112.274 236.619 112.25 233.657 110.363 233.855L107.535 234.075ZM118.783 232.808C116.839 233.178 117.318 236.003 119.159 235.695L121.93 235.372C123.874 235.003 123.441 232.013 121.656 232.424L118.783 232.808ZM130.099 230.951C128.258 231.259 128.543 234.2 130.532 233.94L133.292 233.35C135.134 233.042 134.757 230.156 132.916 230.464L130.099 230.951ZM141.252 228.796C139.263 229.331 140.154 232.164 141.787 231.724L144.649 231.071C146.638 230.537 145.797 227.795 144.114 228.144L141.252 228.796ZM152.439 226.208C150.552 226.681 151.285 229.473 153.019 228.971L155.824 228.215C157.711 227.743 157.074 224.877 155.244 225.453L152.439 226.208ZM163.444 223.043C161.818 223.495 162.195 226.382 164.184 225.847L166.932 224.988C168.967 224.289 167.882 221.572 166.193 222.185L163.444 223.043ZM174.338 219.427C172.558 220.095 173.558 222.877 175.236 222.272L178.03 221.248C179.81 220.581 178.878 217.894 177.087 218.569L174.338 219.427ZM185.147 215.435C183.469 216.041 184.197 218.851 186.09 218.115C187.009 217.832 187.87 217.447 188.884 217.091C190.403 216.445 189.766 213.579 187.884 214.309C186.927 214.767 186.009 215.05 185.147 215.435ZM195.849 210.974C194.023 211.806 195.159 214.369 196.882 213.598L199.468 212.442C201.293 211.61 200.1 208.944 198.434 209.818L195.849 210.974ZM206.262 206.015C204.539 206.786 205.641 209.507 207.455 208.681L210.085 207.36C211.65 206.548 210.718 203.862 208.791 204.756L206.262 206.015ZM216.46 200.638C214.748 201.676 216.247 204.156 217.755 203.241L220.329 201.817C222.041 200.779 220.701 198.34 219.034 199.214L216.46 200.638ZM226.586 194.907C224.976 195.884 226.214 198.385 227.983 197.449C228.788 196.961 229.695 196.411 230.5 195.922C232.008 195.007 230.815 192.342 229.103 193.38C228.196 193.931 227.391 194.419 226.586 194.907ZM236.428 188.662C234.671 189.865 236.373 192.222 237.927 191.142L240.286 189.574C241.941 188.432 240.34 186.014 238.787 187.094L236.428 188.662ZM246.016 182.174C244.463 183.253 245.962 185.733 247.56 184.489L249.964 182.756C251.518 181.676 249.974 179.361 248.42 180.44L246.016 182.174ZM255.31 175.177C253.915 176.298 255.414 178.778 257.013 177.533C257.761 176.942 258.612 176.288 259.36 175.697C260.811 174.679 259.313 172.199 257.714 173.444C256.965 174.035 256.217 174.627 255.31 175.177ZM264.508 167.979C262.965 169.327 264.912 171.383 266.245 170.177L268.542 168.249C269.982 166.963 268.143 164.827 266.805 166.051L264.508 167.979ZM273.422 160.266C271.982 161.551 273.713 163.738 275.159 162.464L277.445 160.543C278.783 159.319 276.996 157.029 275.55 158.303L273.422 160.266ZM281.952 152.374C280.614 153.598 282.401 155.887 283.893 154.448L286.032 152.479C287.467 150.937 285.372 149.078 284.09 150.405L281.952 152.374ZM290.329 144.177C288.996 145.658 290.982 147.567 292.27 146.252L294.454 144.118C295.787 142.637 293.801 140.728 292.411 142.105L290.329 144.177ZM298.441 135.745C297.153 137.061 299.094 139.135 300.484 137.757L302.509 135.582C303.797 134.267 301.901 132.028 300.466 133.57L298.441 135.745Z" fill="#CCCCCC"/>
</g>
<defs>
<clipPath id="clip0_197_501">
<rect width="852" height="249" fill="white" transform="translate(618 73)"/>
</clipPath>
<clipPath id="clip1_197_501">
<rect width="389.501" height="145.305" fill="white" transform="matrix(-0.85498 0.518661 -0.481568 -0.876409 402.989 127.981)"/>
</clipPath>
</defs>
</svg>
